<svg xmlns="http://www.w3.org/2000/svg" viewBox="0 0 100 100" width="100" height="100">
  <!-- Petals -->
  <ellipse cx="50" cy="22" rx="10" ry="18" fill="#e879a0" opacity="0.9" transform="rotate(0 50 50)"/>
  <ellipse cx="50" cy="22" rx="10" ry="18" fill="#e879a0" opacity="0.9" transform="rotate(45 50 50)"/>
  <ellipse cx="50" cy="22" rx="10" ry="18" fill="#e879a0" opacity="0.9" transform="rotate(90 50 50)"/>
  <ellipse cx="50" cy="22" rx="10" ry="18" fill="#e879a0" opacity="0.9" transform="rotate(135 50 50)"/>
  <ellipse cx="50" cy="22" rx="10" ry="18" fill="#e879a0" opacity="0.9" transform="rotate(180 50 50)"/>
  <ellipse cx="50" cy="22" rx="10" ry="18" fill="#e879a0" opacity="0.9" transform="rotate(225 50 50)"/>
  <ellipse cx="50" cy="22" rx="10" ry="18" fill="#e879a0" opacity="0.9" transform="rotate(270 50 50)"/>
  <ellipse cx="50" cy="22" rx="10" ry="18" fill="#e879a0" opacity="0.9" transform="rotate(315 50 50)"/>
  <!-- Center -->
  <circle cx="50" cy="50" r="14" fill="#f7c948"/>
  <circle cx="50" cy="50" r="9" fill="#e8a020"/>
</svg>
